<mxfile>
    <diagram id="nRNeWYrpzQJVvI69Rqnn" name="Page-1">
        <mxGraphModel dx="1049" dy="557" grid="1" gridSize="10" guides="1" tooltips="1" connect="1" arrows="1" fold="1" page="1" pageScale="1" pageWidth="850" pageHeight="1100" math="0" shadow="0">
            <root>
                <mxCell id="0"/>
                <mxCell id="1" parent="0"/>
                <mxCell id="JigTFeRLz7L414qkhkrC-2" value="Servico de pedidos" style="rounded=1;whiteSpace=wrap;html=1;" parent="1" vertex="1">
                    <mxGeometry x="480" y="90" width="160" height="80" as="geometry"/>
                </mxCell>
                <mxCell id="JigTFeRLz7L414qkhkrC-4" value="Servico de status" style="rounded=1;whiteSpace=wrap;html=1;" parent="1" vertex="1">
                    <mxGeometry x="480" y="200" width="160" height="80" as="geometry"/>
                </mxCell>
                <mxCell id="JigTFeRLz7L414qkhkrC-5" value="Servico de pagamento" style="rounded=1;whiteSpace=wrap;html=1;" parent="1" vertex="1">
                    <mxGeometry x="480" y="460" width="160" height="80" as="geometry"/>
                </mxCell>
                <mxCell id="JigTFeRLz7L414qkhkrC-6" value="Servico de entrega" style="rounded=1;whiteSpace=wrap;html=1;" parent="1" vertex="1">
                    <mxGeometry x="480" y="310" width="160" height="80" as="geometry"/>
                </mxCell>
                <mxCell id="JigTFeRLz7L414qkhkrC-9" value="Servico de consulta" style="rounded=1;whiteSpace=wrap;html=1;" parent="1" vertex="1">
                    <mxGeometry x="480" y="620" width="160" height="80" as="geometry"/>
                </mxCell>
                <mxCell id="JigTFeRLz7L414qkhkrC-10" value="Criar pedido" style="text;html=1;align=center;verticalAlign=middle;resizable=0;points=[];autosize=1;strokeColor=none;" parent="1" vertex="1">
                    <mxGeometry x="247.5" y="110" width="80" height="20" as="geometry"/>
                </mxCell>
                <mxCell id="JigTFeRLz7L414qkhkrC-11" value="Cancelar pedido" style="text;html=1;align=center;verticalAlign=middle;resizable=0;points=[];autosize=1;strokeColor=none;" parent="1" vertex="1">
                    <mxGeometry x="240" y="130" width="100" height="20" as="geometry"/>
                </mxCell>
                <mxCell id="JigTFeRLz7L414qkhkrC-12" value="Barramento&lt;br&gt;de eventos" style="rounded=0;whiteSpace=wrap;html=1;" parent="1" vertex="1">
                    <mxGeometry x="910" y="70" width="120" height="640" as="geometry"/>
                </mxCell>
                <mxCell id="JigTFeRLz7L414qkhkrC-17" value="Pedido criado" style="text;html=1;align=center;verticalAlign=middle;resizable=0;points=[];autosize=1;strokeColor=none;" parent="1" vertex="1">
                    <mxGeometry x="655" y="110" width="90" height="20" as="geometry"/>
                </mxCell>
                <mxCell id="JigTFeRLz7L414qkhkrC-19" value="Pedido cancelado" style="text;html=1;align=center;verticalAlign=middle;resizable=0;points=[];autosize=1;strokeColor=none;" parent="1" vertex="1">
                    <mxGeometry x="650" y="130" width="110" height="20" as="geometry"/>
                </mxCell>
                <mxCell id="JigTFeRLz7L414qkhkrC-21" value="Pagamento aprovado" style="text;html=1;strokeColor=none;fillColor=none;align=center;verticalAlign=middle;whiteSpace=wrap;rounded=0;" parent="1" vertex="1">
                    <mxGeometry x="660" y="480" width="85" height="20" as="geometry"/>
                </mxCell>
                <mxCell id="JigTFeRLz7L414qkhkrC-24" value="Pagamento recusado" style="text;html=1;strokeColor=none;fillColor=none;align=center;verticalAlign=middle;whiteSpace=wrap;rounded=0;" parent="1" vertex="1">
                    <mxGeometry x="660" y="520" width="85" height="20" as="geometry"/>
                </mxCell>
                <mxCell id="JigTFeRLz7L414qkhkrC-27" value="Pagamento cancelado" style="text;html=1;strokeColor=none;fillColor=none;align=center;verticalAlign=middle;whiteSpace=wrap;rounded=0;" parent="1" vertex="1">
                    <mxGeometry x="660" y="560" width="85" height="20" as="geometry"/>
                </mxCell>
                <mxCell id="JigTFeRLz7L414qkhkrC-28" value="Pedido em entrega" style="text;html=1;align=center;verticalAlign=middle;resizable=0;points=[];autosize=1;strokeColor=none;" parent="1" vertex="1">
                    <mxGeometry x="655" y="340" width="120" height="20" as="geometry"/>
                </mxCell>
                <mxCell id="JigTFeRLz7L414qkhkrC-29" value="Status alterado" style="text;html=1;align=center;verticalAlign=middle;resizable=0;points=[];autosize=1;strokeColor=none;" parent="1" vertex="1">
                    <mxGeometry x="655" y="230" width="100" height="20" as="geometry"/>
                </mxCell>
                <mxCell id="JigTFeRLz7L414qkhkrC-31" value="Alterar status" style="text;html=1;strokeColor=none;fillColor=none;align=center;verticalAlign=middle;whiteSpace=wrap;rounded=0;" parent="1" vertex="1">
                    <mxGeometry x="240" y="230" width="110" height="20" as="geometry"/>
                </mxCell>
                <mxCell id="JigTFeRLz7L414qkhkrC-32" value="Criar entrega" style="text;html=1;strokeColor=none;fillColor=none;align=center;verticalAlign=middle;whiteSpace=wrap;rounded=0;" parent="1" vertex="1">
                    <mxGeometry x="247.5" y="340" width="80" height="20" as="geometry"/>
                </mxCell>
                <mxCell id="JigTFeRLz7L414qkhkrC-33" value="Processar pagamento" style="text;html=1;strokeColor=none;fillColor=none;align=center;verticalAlign=middle;whiteSpace=wrap;rounded=0;" parent="1" vertex="1">
                    <mxGeometry x="220" y="480" width="135" height="20" as="geometry"/>
                </mxCell>
                <mxCell id="JigTFeRLz7L414qkhkrC-34" value="Ver pedidos(s)" style="text;html=1;strokeColor=none;fillColor=none;align=center;verticalAlign=middle;whiteSpace=wrap;rounded=0;" parent="1" vertex="1">
                    <mxGeometry x="230" y="650" width="110" height="20" as="geometry"/>
                </mxCell>
                <mxCell id="JigTFeRLz7L414qkhkrC-36" value="" style="shape=flexArrow;endArrow=classic;html=1;width=20;endSize=5;" parent="1" edge="1">
                    <mxGeometry width="50" height="50" relative="1" as="geometry">
                        <mxPoint x="770" y="110" as="sourcePoint"/>
                        <mxPoint x="850" y="110" as="targetPoint"/>
                        <Array as="points">
                            <mxPoint x="810" y="110"/>
                        </Array>
                    </mxGeometry>
                </mxCell>
                <mxCell id="JigTFeRLz7L414qkhkrC-37" value="" style="shape=flexArrow;endArrow=classic;html=1;width=20;endSize=5;" parent="1" edge="1">
                    <mxGeometry width="50" height="50" relative="1" as="geometry">
                        <mxPoint x="775" y="239.5" as="sourcePoint"/>
                        <mxPoint x="855" y="239.5" as="targetPoint"/>
                        <Array as="points">
                            <mxPoint x="815" y="239.5"/>
                        </Array>
                    </mxGeometry>
                </mxCell>
                <mxCell id="JigTFeRLz7L414qkhkrC-38" value="" style="shape=flexArrow;endArrow=classic;html=1;width=20;endSize=5;" parent="1" edge="1">
                    <mxGeometry width="50" height="50" relative="1" as="geometry">
                        <mxPoint x="770" y="150" as="sourcePoint"/>
                        <mxPoint x="850" y="150" as="targetPoint"/>
                        <Array as="points">
                            <mxPoint x="810" y="150"/>
                        </Array>
                    </mxGeometry>
                </mxCell>
                <mxCell id="JigTFeRLz7L414qkhkrC-39" value="" style="shape=flexArrow;endArrow=classic;html=1;width=20;endSize=5;" parent="1" edge="1">
                    <mxGeometry width="50" height="50" relative="1" as="geometry">
                        <mxPoint x="775" y="349.5" as="sourcePoint"/>
                        <mxPoint x="855" y="349.5" as="targetPoint"/>
                        <Array as="points">
                            <mxPoint x="815" y="349.5"/>
                        </Array>
                    </mxGeometry>
                </mxCell>
                <mxCell id="JigTFeRLz7L414qkhkrC-42" value="" style="shape=flexArrow;endArrow=classic;html=1;width=20;endSize=5;" parent="1" edge="1">
                    <mxGeometry width="50" height="50" relative="1" as="geometry">
                        <mxPoint x="770" y="489" as="sourcePoint"/>
                        <mxPoint x="850" y="489" as="targetPoint"/>
                        <Array as="points">
                            <mxPoint x="810" y="489"/>
                        </Array>
                    </mxGeometry>
                </mxCell>
                <mxCell id="JigTFeRLz7L414qkhkrC-43" value="" style="shape=flexArrow;endArrow=classic;html=1;width=20;endSize=5;" parent="1" edge="1">
                    <mxGeometry width="50" height="50" relative="1" as="geometry">
                        <mxPoint x="770" y="529" as="sourcePoint"/>
                        <mxPoint x="850" y="529" as="targetPoint"/>
                        <Array as="points">
                            <mxPoint x="810" y="529"/>
                        </Array>
                    </mxGeometry>
                </mxCell>
                <mxCell id="JigTFeRLz7L414qkhkrC-44" value="" style="shape=flexArrow;endArrow=classic;html=1;width=20;endSize=5;" parent="1" edge="1">
                    <mxGeometry width="50" height="50" relative="1" as="geometry">
                        <mxPoint x="770" y="569" as="sourcePoint"/>
                        <mxPoint x="850" y="569" as="targetPoint"/>
                        <Array as="points">
                            <mxPoint x="810" y="569"/>
                        </Array>
                    </mxGeometry>
                </mxCell>
                <mxCell id="JigTFeRLz7L414qkhkrC-45" value="Pagamento criado" style="text;html=1;strokeColor=none;fillColor=none;align=center;verticalAlign=middle;whiteSpace=wrap;rounded=0;" parent="1" vertex="1">
                    <mxGeometry x="660" y="440" width="85" height="20" as="geometry"/>
                </mxCell>
                <mxCell id="JigTFeRLz7L414qkhkrC-46" value="" style="shape=flexArrow;endArrow=classic;html=1;width=20;endSize=5;" parent="1" edge="1">
                    <mxGeometry width="50" height="50" relative="1" as="geometry">
                        <mxPoint x="770" y="449" as="sourcePoint"/>
                        <mxPoint x="850" y="449" as="targetPoint"/>
                        <Array as="points">
                            <mxPoint x="810" y="449"/>
                        </Array>
                    </mxGeometry>
                </mxCell>
                <mxCell id="JigTFeRLz7L414qkhkrC-48" value="&lt;b&gt;&lt;font style=&quot;font-size: 14px&quot;&gt;Endpoints&lt;/font&gt;&lt;/b&gt;" style="text;html=1;strokeColor=none;fillColor=none;align=center;verticalAlign=middle;whiteSpace=wrap;rounded=0;" parent="1" vertex="1">
                    <mxGeometry x="267.5" y="50" width="40" height="20" as="geometry"/>
                </mxCell>
                <mxCell id="JigTFeRLz7L414qkhkrC-49" value="&lt;b&gt;&lt;font style=&quot;font-size: 14px&quot;&gt;Eventos&lt;/font&gt;&lt;/b&gt;" style="text;html=1;strokeColor=none;fillColor=none;align=center;verticalAlign=middle;whiteSpace=wrap;rounded=0;" parent="1" vertex="1">
                    <mxGeometry x="695" y="50" width="40" height="20" as="geometry"/>
                </mxCell>
            </root>
        </mxGraphModel>
    </diagram>
</mxfile>